<svg xmlns="http://www.w3.org/2000/svg" width="18.788" height="21.003" viewBox="0 0 18.788 21.003"><defs><style>.a{fill:#292f35;}</style></defs><g transform="translate(-26.996 0)"><g transform="translate(33.413 8.775)"><g transform="translate(0)"><path class="a" d="M188.307,214.965a.466.466,0,0,0-.658,0l-.874.874a1.114,1.114,0,0,0-.773,0l-1.8-1.8a.465.465,0,1,0-.658.658l1.8,1.8a1.114,1.114,0,1,0,2.09,0l.874-.874A.466.466,0,0,0,188.307,214.965Zm-1.919,2.2a.276.276,0,1,1,.276-.276A.277.277,0,0,1,186.388,217.16Z" transform="translate(-183.41 -213.906)"/></g></g><g transform="translate(26.996 0)"><g transform="translate(0 0)"><path class="a" d="M41.886,4.7l.527-.753,2.114,1.48a.465.465,0,0,0,.648-.114,3.374,3.374,0,1,0-5.528-3.871.465.465,0,0,0,.114.648L41.65,3.408l-.527.753a8.929,8.929,0,0,0-9.465,0l-.528-.753,1.888-1.322a.465.465,0,0,0,.114-.648,3.374,3.374,0,0,0-5.528,3.871.465.465,0,0,0,.3.191.459.459,0,0,0,.081.007.465.465,0,0,0,.267-.084l2.114-1.48L30.9,4.7a8.94,8.94,0,0,0,.568,14.523l-.737,1.053a.465.465,0,1,0,.763.534l.779-1.112a8.934,8.934,0,0,0,8.245,0l.779,1.112a.465.465,0,1,0,.763-.534l-.737-1.052A8.94,8.94,0,0,0,41.886,4.7ZM40.714,1.616a2.443,2.443,0,0,1,3.93,2.752ZM28.137,4.367a2.444,2.444,0,0,1,3.93-2.752Zm8.253,15.4a8.017,8.017,0,1,1,8.017-8.017A8.026,8.026,0,0,1,36.39,19.769Z" transform="translate(-26.996 0)"/></g></g><g transform="translate(29.81 5.171)"><path class="a" d="M102.162,126.07a6.581,6.581,0,1,0,6.581,6.581A6.588,6.588,0,0,0,102.162,126.07Zm4.375,10.3-.315-.314a.465.465,0,0,0-.658.658l.314.315a5.718,5.718,0,0,1-3.251,1.349v-.448a.465.465,0,0,0-.931,0v.448a5.718,5.718,0,0,1-3.251-1.349l.315-.315a.465.465,0,0,0-.658-.658l-.315.315a5.718,5.718,0,0,1-1.349-3.251h.448a.465.465,0,1,0,0-.931h-.448a5.718,5.718,0,0,1,1.349-3.251l.315.314a.465.465,0,1,0,.658-.658l-.315-.315a5.718,5.718,0,0,1,3.251-1.349v.448a.465.465,0,1,0,.931,0v-.448a5.718,5.718,0,0,1,3.251,1.349l-.314.315a.465.465,0,0,0,.658.658l.315-.314a5.718,5.718,0,0,1,1.349,3.251h-.448a.465.465,0,1,0,0,.931h.448A5.717,5.717,0,0,1,106.536,136.367Z" transform="translate(-95.581 -126.07)"/></g></g></svg>