<svg xmlns="http://www.w3.org/2000/svg" width="19" height="19" viewBox="0 0 19 19"><path d="M37.931,34a3.931,3.931,0,1,0,3.931,3.931A3.935,3.935,0,0,0,37.931,34Zm0,7.207a3.276,3.276,0,1,1,3.276-3.276A3.28,3.28,0,0,1,37.931,41.207Z" transform="translate(-22.862 -22.862)"/><path d="M47.293,40.966H45.655V39.328a.328.328,0,1,0-.655,0v1.966a.327.327,0,0,0,.328.328h1.966a.328.328,0,0,0,0-.655Z" transform="translate(-30.259 -26.224)"/><path d="M13.552,21H7v9.5h6.552V24.6h5.9V21h-5.9Zm2.948.655h2.293v2.293H16.5Zm-5.9,0H12.9v2.293H10.6Zm-2.948,0H9.948v2.293H7.655Zm0,2.948H9.948V26.9H7.655Zm2.293,5.241H7.655V27.552H9.948Zm2.948,0H10.6V27.552H12.9Zm0-2.948H10.6V24.6H12.9Zm2.948-2.948H13.552V21.655h2.293Z" transform="translate(-4.707 -14.121)"/><path d="M10.81,18.017H.655V5.241H16.379V9.5a.328.328,0,1,0,.655,0V1.638a.327.327,0,0,0-.328-.328H15.069V.328A.327.327,0,0,0,14.741,0H12.448a.327.327,0,0,0-.328.328V1.31H4.914V.328A.327.327,0,0,0,4.586,0H2.293a.327.327,0,0,0-.328.328V1.31H.328A.327.327,0,0,0,0,1.638V18.345a.327.327,0,0,0,.328.328H10.81a.328.328,0,0,0,0-.655ZM12.776.655h1.638V2.621H12.776V.655ZM2.621.655H4.259V2.621H2.621V.655ZM.655,1.966h1.31v.983a.327.327,0,0,0,.328.328H4.586a.327.327,0,0,0,.328-.328V1.966h7.207v.983a.327.327,0,0,0,.328.328h2.293a.327.327,0,0,0,.328-.328V1.966h1.31V4.586H.655Z"/></svg>