<svg xmlns="http://www.w3.org/2000/svg" width="18.11" height="18.019" viewBox="0 0 18.11 18.019"><defs><style>.a{fill:#292f35;}</style></defs><g transform="translate(0 -0.261)"><path class="a" d="M16.613,48.611a.447.447,0,0,0-.448.446v3.957a1.342,1.342,0,0,1-1.345,1.337H2.241A1.342,1.342,0,0,1,.9,53.014V41.4a1.343,1.343,0,0,1,1.345-1.337h3.98a.446.446,0,1,0,0-.891H2.241A2.237,2.237,0,0,0,0,41.4V53.014a2.237,2.237,0,0,0,2.241,2.228H14.82a2.237,2.237,0,0,0,2.241-2.228V49.057A.447.447,0,0,0,16.613,48.611Zm0,0" transform="translate(0 -36.963)"/><path class="a" d="M121.632.921a2.253,2.253,0,0,0-3.187,0l-8.934,8.934a.5.5,0,0,0-.129.22l-1.175,4.241a.5.5,0,0,0,.616.616l4.241-1.175a.5.5,0,0,0,.22-.129L122.219,4.7a2.256,2.256,0,0,0,0-3.187ZM110.6,10.18l7.311-7.312,2.358,2.358-7.312,7.312Zm-.471.945,1.884,1.884-2.606.722Zm11.38-7.138-.531.531L118.622,2.16l.531-.531a1.252,1.252,0,0,1,1.77,0l.588.588A1.254,1.254,0,0,1,121.511,3.987Zm0,0" transform="translate(-104.768)"/></g></svg>