<svg xmlns="http://www.w3.org/2000/svg" width="32.88" height="17.501" viewBox="0 0 32.88 17.501"><defs><style>.a{fill:#292f35;}.b{fill:#fff;}</style></defs><g transform="translate(-1 -15)"><path class="a" d="M31.228,31.44H22.855c1-1.477,5.192-7.852,5.192-10.606a5.834,5.834,0,0,0-11.667,0c0,2.754,4.194,9.13,5.192,10.606H15.849V25.076a.53.53,0,0,0-.212-.424L11.394,21.47a.53.53,0,0,0-.636,0L6.515,24.652a.53.53,0,0,0-.212.424V31.44H1.53a.53.53,0,1,0,0,1.061h29.7a.53.53,0,0,0,0-1.061ZM22.213,16.061a4.778,4.778,0,0,1,4.773,4.773c0,2.065-3.123,7.181-4.773,9.661-1.65-2.479-4.773-7.593-4.773-9.661A4.778,4.778,0,0,1,22.213,16.061ZM10.016,31.44V28.258h2.121V31.44Zm3.182,0V27.728a.53.53,0,0,0-.53-.53H9.485a.53.53,0,0,0-.53.53V31.44H7.364v-6.1l3.712-2.784,3.712,2.784v6.1Z" transform="translate(0 0)"/><path class="b" d="M61.061,46h-.53a.53.53,0,0,0,0,1.061h.53a.53.53,0,0,0,0-1.061Z" transform="translate(-27.711 -14.56)"/><path class="a" d="M41.3,23.652A2.652,2.652,0,1,0,38.652,26.3,2.652,2.652,0,0,0,41.3,23.652Zm-4.242,0a1.591,1.591,0,1,1,1.591,1.591A1.591,1.591,0,0,1,37.061,23.652Z" transform="translate(-16.439 -2.818)"/></g></svg>