<svg xmlns="http://www.w3.org/2000/svg" viewBox="0 0 10.27 10.93"><defs><style>.cls-1{fill:#989797;}</style></defs><title>Asset 1</title><g id="Layer_2" data-name="Layer 2"><g id="Layer_1-2" data-name="Layer 1"><path class="cls-1" d="M4.39,10.93V7.58a4,4,0,0,1,0-.61,2.23,2.23,0,0,1,.16-.56,3.42,3.42,0,0,1-.9.76L.77,8.86,0,7.58l2.92-1.7a3,3,0,0,1,1.24-.41,3.29,3.29,0,0,1-.64-.12,2.8,2.8,0,0,1-.6-.3L0,3.33.75,2.06l2.94,1.7a2.83,2.83,0,0,1,1,.88A2.39,2.39,0,0,1,4.45,4a3.49,3.49,0,0,1-.06-.65V0H5.88V3.35a2.92,2.92,0,0,1-.24,1.22,2.94,2.94,0,0,1,.42-.44,5.85,5.85,0,0,1,.52-.37L9.5,2.07l.75,1.28L7.33,5.05a3.84,3.84,0,0,1-.57.29,2.3,2.3,0,0,1-.59.13,3.63,3.63,0,0,1,.59.13,3,3,0,0,1,.57.28L10.27,7.6,9.52,8.87,6.58,7.17A5,5,0,0,1,6,6.8a1.9,1.9,0,0,1-.43-.46,2.76,2.76,0,0,1,.27,1.22v3.37Z"/></g></g></svg>