<svg xmlns="http://www.w3.org/2000/svg" width="21.083" height="23" viewBox="0 0 21.083 23"><g transform="translate(-2.5)"><path d="M15.15,11.881a.383.383,0,0,0-.383.383v5.369H3.267V3.067h11.5V8.433a.383.383,0,0,0,.767,0V1.689A1.691,1.691,0,0,0,13.845,0H4.189A1.691,1.691,0,0,0,2.5,1.689V21.311A1.691,1.691,0,0,0,4.189,23h9.656a1.691,1.691,0,0,0,1.689-1.689V12.265A.382.382,0,0,0,15.15,11.881ZM4.189.767h9.656a.923.923,0,0,1,.922.922V2.3H3.267V1.689A.923.923,0,0,1,4.189.767Zm9.656,21.467H4.189a.923.923,0,0,1-.922-.922V18.4h11.5v2.911A.923.923,0,0,1,13.845,22.233Z"/><path d="M17.033,49a1.533,1.533,0,1,0,1.533,1.533A1.535,1.535,0,0,0,17.033,49Zm0,2.3a.767.767,0,1,1,.767-.767A.767.767,0,0,1,17.033,51.3Z" transform="translate(-8.017 -30.217)"/><path d="M14.883,3.767h1.533a.383.383,0,1,0,0-.767H14.883a.383.383,0,0,0,0,.767Z" transform="translate(-7.4 -1.85)"/><path d="M21.883,3.767h.383a.383.383,0,0,0,0-.767h-.383a.383.383,0,0,0,0,.767Z" transform="translate(-11.717 -1.85)"/><path d="M32.451,18.6H18.809l3.946-3.946a.383.383,0,0,0-.542-.542l-4.6,4.6a.386.386,0,0,0,0,.544l4.6,4.6a.384.384,0,0,0,.542-.543l-3.946-3.946H32.451a.383.383,0,0,0,0-.767Z" transform="translate(-9.251 -8.633)"/></g></svg>