<svg xmlns="http://www.w3.org/2000/svg" width="25.348" height="19.086" viewBox="0 0 25.348 19.086"><defs><style>.a{fill:#292f35;}</style></defs><g transform="translate(0 -63.235)"><g transform="translate(0 63.235)"><g transform="translate(0 0)"><path class="a" d="M23.58,66.365H17.269v-1.1a2.03,2.03,0,0,0-2.028-2.028H10.107a2.03,2.03,0,0,0-2.028,2.028v1.1H1.768A1.77,1.77,0,0,0,0,68.132V80.554a1.77,1.77,0,0,0,1.768,1.768H23.58a1.77,1.77,0,0,0,1.768-1.768V68.132A1.77,1.77,0,0,0,23.58,66.365Zm-14.491-1.1a1.019,1.019,0,0,1,1.018-1.018h5.133a1.019,1.019,0,0,1,1.018,1.018v1.1H9.089ZM24.338,80.554a.759.759,0,0,1-.758.758H1.768a.759.759,0,0,1-.758-.758V70.81l7.753,3.76a2.023,2.023,0,0,0,1.993,1.692h3.838a2.023,2.023,0,0,0,1.993-1.692l4.842-2.349a.5.5,0,0,0-.441-.909L16.472,73.5a2.023,2.023,0,0,0-1.879-1.28H10.755A2.023,2.023,0,0,0,8.876,73.5L1.01,69.688V68.132a.759.759,0,0,1,.758-.758H23.58a.759.759,0,0,1,.758.758V80.554ZM9.745,74.243a1.011,1.011,0,0,1,1.01-1.01h3.838a1.01,1.01,0,0,1,0,2.02H10.755A1.011,1.011,0,0,1,9.745,74.243Z" transform="translate(0 -63.235)"/></g></g><g transform="translate(22.368 70.304)"><path class="a" d="M453.091,206.307a.5.5,0,0,0-.675-.234l-.31.15a.5.5,0,1,0,.441.909l.31-.15A.5.5,0,0,0,453.091,206.307Z" transform="translate(-451.822 -206.022)"/></g></g></svg>